<?xml version="1.0" encoding="UTF-8" standalone="no"?>
<!-- Generator: Adobe Illustrator 17.1.0, SVG Export Plug-In . SVG Version: 6.00 Build 0)  -->

<svg
   version="1.1"
   id="Layer_1"
   x="0px"
   y="0px"
   viewBox="0 0 512 512"
   enable-background="new 0 0 792 612"
   xml:space="preserve"
   sodipodi:docname="fishy_logo.svg"
   width="512"
   height="512"
   inkscape:version="1.2.2 (b0a8486541, 2022-12-01)"
   inkscape:export-filename="fishy_logo.png"
   inkscape:export-xdpi="96"
   inkscape:export-ydpi="96"
   xmlns:inkscape="http://www.inkscape.org/namespaces/inkscape"
   xmlns:sodipodi="http://sodipodi.sourceforge.net/DTD/sodipodi-0.dtd"
   xmlns="http://www.w3.org/2000/svg"
   xmlns:svg="http://www.w3.org/2000/svg"
   xmlns:rdf="http://www.w3.org/1999/02/22-rdf-syntax-ns#"
   xmlns:cc="http://creativecommons.org/ns#"
   xmlns:dc="http://purl.org/dc/elements/1.1/"><defs
   id="defs25" /><sodipodi:namedview
   id="namedview23"
   pagecolor="#ffffff"
   bordercolor="#000000"
   borderopacity="0.25"
   inkscape:showpageshadow="2"
   inkscape:pageopacity="0.0"
   inkscape:pagecheckerboard="0"
   inkscape:deskcolor="#d1d1d1"
   showgrid="false"
   inkscape:zoom="1.380719"
   inkscape:cx="361.76805"
   inkscape:cy="224.15858"
   inkscape:window-width="1920"
   inkscape:window-height="1018"
   inkscape:window-x="0"
   inkscape:window-y="0"
   inkscape:window-maximized="1"
   inkscape:current-layer="Layer_1" />
<g
   id="g18"
   transform="translate(-133.0034,-87.741606)">
	<path
   fill="none"
   d="m 526.9,454.4 18.8,20.7 c 2.4,-4.7 4.6,-12.2 5,-16.6 0.7,-8.9 -20.6,-29.3 -29.2,-27.9 -6.1,1 -5.9,1.8 5.4,23.8 z"
   id="path2" />
	<path
   fill="none"
   d="m 547.1,426.7 c 6,7.9 12.8,7.8 11.5,-0.1 -0.5,-3 -4.6,-6.8 -9.1,-8.3 -9.3,-3.2 -9.8,-1.3 -2.4,8.4 z"
   id="path4" />
	<path
   fill="none"
   d="m 255.9,205.9 c -3.5,-2.5 -8.5,-1.7 -11,1.8 l -7.4,10.3 -10.3,-7.4 c -3.5,-2.5 -8.5,-1.7 -11,1.8 -2.5,3.5 -1.7,8.5 1.8,11 l 10.3,7.4 -7.4,10.3 c -2.5,3.5 -1.7,8.5 1.8,11 3.5,2.5 8.5,1.7 11,-1.8 l 7.4,-10.3 10.3,7.4 c 3.5,2.5 8.5,1.7 11,-1.8 2.5,-3.5 1.7,-8.5 -1.8,-11 l -10.3,-7.4 7.4,-10.3 c 2.6,-3.5 1.8,-8.5 -1.8,-11 z"
   id="path6" />
	<path
   fill="none"
   d="m 607.4,336.2 c -3.7,1.7 -16.8,6.1 -29,9.7 l -22.2,6.5 15.9,2.3 c 23.5,3.4 30.5,1.4 36.6,-10.7 v 0 c 5.3,-10.7 5.3,-10.9 -1.3,-7.8 z"
   id="path8" />
	<path
   fill="none"
   d="m 545.9,393.8 c -2.7,3.8 17.6,14.8 21.3,11.6 1.7,-1.5 2.8,-4.3 2.4,-6.3 v 0 c -0.7,-4.5 -21,-9 -23.7,-5.3 z"
   id="path10" />
	<path
   fill="none"
   d="m 551.5,371.3 12.9,7.7 c 13.2,7.9 22.7,7.6 24,-0.7 0.8,-4.7 -3.5,-5.8 -25.2,-6.5 z"
   id="path12" />
	<polygon
   fill="#010101"
   points=""
   id="polygon14" />
	<path
   fill="#010101"
   d="m 606.3,321.4 c -6.5,2.5 -24.9,7.6 -40.8,11.4 -26.5,6.3 -28.8,7.6 -27.7,15 1.6,10 -2.8,21.2 -7.1,18.1 -1.7,-1.2 -2.1,-9.2 -0.7,-17.7 2.6,-16.3 -2.4,-31.3 -9.8,-30 -2.5,0.4 -7.3,7.3 -10.8,15.4 -11.5,26.3 -19.9,17 -10.7,-11.9 4.2,-13.3 4.1,-17.6 -0.8,-24.9 -7.8,-11.7 -13.2,-10.3 -21.4,5.6 -8.8,17.2 -11.2,14.5 -6.9,-7.7 3.5,-17.9 -0.4,-33 -7,-27.2 -0.9,0.8 -8.8,4.3 -9,4.1 -2.9,-2.1 -6.3,2.8 -19.2,28.1 -10,19.4 -13.6,10 -6.4,-16.9 6.5,-24.5 4,-43.6 -6.3,-47.9 -7.7,-3.2 -20.1,10.2 -24.4,26.2 -2.3,8.7 -6.2,18.1 -8.7,20.9 -8.1,9.4 -10.4,1.2 -4.8,-17.4 5.8,-19.3 2.8,-54.1 -4.8,-57.3 -10.1,-4.2 -18.9,6.7 -25.7,31.7 -3.9,14.4 -8.4,26.3 -10.1,26.6 -6.8,1.1 -30.2,-10.8 -31,-15.7 -0.5,-2.9 3.5,-16.1 8.8,-29.4 5.3,-13.3 9.2,-26.5 8.8,-29.3 -0.5,-2.8 -9.3,-7.4 -19.6,-10 -16.2,-4.2 -24.5,-3.7 -60.6,3.6 -39.2,7.9 -43.3,9.5 -66.4,26.6 -29.9,22.1 -45.5,39.7 -43.9,49.4 0.2,1 0.4,2 0.7,3.1 l 21,-0.5 c 4.1,-0.1 7.4,3.1 7.5,7.1 v 0.1 c 0.1,4.1 -3.1,7.4 -7.1,7.5 l -13.3,0.3 c 18.2,24.5 60.8,55.4 97.1,68 31.9,11 38,7.4 41.5,-24.5 2.3,-20.2 4,-24.3 11.1,-25.5 10.5,-1.7 26.9,5.8 28,12.9 0.5,2.9 -5.5,14.4 -13.3,25.6 -15.2,21.8 -16.4,26.7 -6.9,28.6 10.7,2.2 24.3,-6.4 38.4,-24.4 13,-16.6 25.5,-24.1 26.8,-16.1 0.3,2 -6.5,13.5 -15.2,25.6 -17.1,23.8 -17.9,27.1 -8.4,32.7 8.5,5 17.9,-0.5 37.2,-21.7 9,-9.9 18.1,-18.2 20.3,-18.6 8.5,-1.4 4.6,9.3 -9.8,26.9 -10.8,13.2 -14.1,20.2 -11.6,24.4 6.6,11.2 24.4,3.9 43.8,-18.1 10,-11.2 19.1,-20.6 20.2,-20.8 6,-1 2.1,10.3 -10.7,30.1 -12.9,20.1 -13.5,22.5 -6.9,25.8 8.8,4.5 21.1,-3.5 32.9,-21.2 7.1,-10.7 17.2,-16.4 17.9,-10.1 0.2,1.6 -3.8,9.6 -8.7,17.8 -5,8.2 -8.5,18 -7.9,21.7 1.7,10.6 16.9,5.8 29.7,-9.4 11.8,-13.9 23.9,-19.2 25.2,-11 0.4,2.7 -3.5,12.2 -8.7,21.1 l -9.5,16.3 16,33 c 8.8,18.1 17,35 18.2,37.5 1.2,2.5 3.9,4.2 5.8,3.9 7,-1.1 12.9,-13.7 24.2,-51.5 9.8,-33 15.7,-44.2 43.2,-82.5 17.5,-24.4 31.4,-47.1 30.8,-50.4 -1.1,-7.5 -17,-9.1 -32.5,-3.1 z m -348.6,-104.5 -7.4,10.3 10.3,7.4 c 3.5,2.5 4.4,7.5 1.8,11 -2.5,3.5 -7.5,4.4 -11,1.8 l -10.3,-7.4 -7.4,10.3 c -2.5,3.5 -7.5,4.4 -11,1.8 -3.5,-2.5 -4.4,-7.5 -1.8,-11 l 7.4,-10.3 -10.3,-7.4 c -3.5,-2.5 -4.4,-7.5 -1.8,-11 2.5,-3.5 7.5,-4.4 11,-1.8 l 10.3,7.4 7.4,-10.3 c 2.5,-3.5 7.5,-4.4 11,-1.8 3.6,2.5 4.4,7.5 1.8,11 z m 293,241.6 c -0.4,4.5 -2.6,12 -5,16.6 l -18.8,-20.7 c -11.4,-22.1 -11.5,-22.8 -5.4,-23.8 8.6,-1.4 29.9,19.1 29.2,27.9 z m 7.9,-31.9 c 1.3,7.9 -5.5,7.9 -11.5,0.1 -7.4,-9.7 -6.9,-11.6 2.4,-8.4 4.5,1.5 8.6,5.3 9.1,8.3 z m 11,-27.5 v 0 c 0.3,2 -0.8,4.8 -2.4,6.3 -3.7,3.2 -24,-7.8 -21.3,-11.6 2.7,-3.7 23,0.8 23.7,5.3 z m 18.8,-20.9 c -1.3,8.3 -10.8,8.6 -24,0.7 l -12.9,-7.7 11.7,0.4 c 21.7,0.9 26,2 25.2,6.6 z M 608.6,344 v 0 c -6.1,12.1 -13.1,14.1 -36.6,10.7 l -15.9,-2.3 22.2,-6.5 c 12.2,-3.6 25.3,-7.9 29,-9.7 6.7,-3.1 6.7,-2.9 1.3,7.8 z"
   id="path16" />
</g>
<metadata
   id="metadata20"><rdf:RDF><cc:Work><dc:format>image/svg+xml</dc:format><dc:type
         rdf:resource="http://purl.org/dc/dcmitype/StillImage" /><cc:license
         rdf:resource="http://creativecommons.org/publicdomain/zero/1.0/" /><dc:publisher><cc:Agent
           rdf:about="http://openclipart.org/"><dc:title>Openclipart</dc:title></cc:Agent></dc:publisher></cc:Work><cc:License
       rdf:about="http://creativecommons.org/publicdomain/zero/1.0/"><cc:permits
         rdf:resource="http://creativecommons.org/ns#Reproduction" /><cc:permits
         rdf:resource="http://creativecommons.org/ns#Distribution" /><cc:permits
         rdf:resource="http://creativecommons.org/ns#DerivativeWorks" /></cc:License></rdf:RDF></metadata></svg>
